<svg width="46" height="46" viewBox="0 0 46 46" fill="none" xmlns="http://www.w3.org/2000/svg">
    <path d="M29.2857 32.1786H24.8214V19.8572V19.6072H24.5714H18.2857H18.0357V19.8572V23V23.25H18.2857H21.1786V32.1786H16.7143H16.4643V32.4286V35.5714V35.8214H16.7143H29.2857H29.5357V35.5714V32.4286V32.1786H29.2857ZM23 10.1786C22.4844 10.1786 21.9803 10.3315 21.5516 10.618C21.1228 10.9044 20.7887 11.3116 20.5913 11.788C20.394 12.2644 20.3424 12.7886 20.443 13.2944C20.5436 13.8001 20.7919 14.2646 21.1565 14.6293C21.5211 14.9939 21.9856 15.2422 22.4914 15.3428C22.9971 15.4434 23.5213 15.3917 23.9977 15.1944C24.4741 14.9971 24.8813 14.6629 25.1678 14.2342C25.4542 13.8054 25.6071 13.3014 25.6071 12.7857C25.6071 12.0943 25.3325 11.4311 24.8435 10.9422C24.3546 10.4533 23.6915 10.1786 23 10.1786Z" fill="white" stroke="white" stroke-width="0.5"/>
    <path d="M10.6386 41.5002C14.2976 43.9451 18.5994 45.25 23 45.25C28.9011 45.25 34.5604 42.9058 38.7331 38.7331C42.9058 34.5604 45.25 28.9011 45.25 23C45.25 18.5994 43.9451 14.2976 41.5002 10.6386C39.0553 6.97958 35.5804 4.12774 31.5147 2.44369C27.4491 0.759641 22.9753 0.319016 18.6592 1.17754C14.3432 2.03606 10.3786 4.15516 7.26688 7.26688C4.15516 10.3786 2.03606 14.3432 1.17754 18.6592C0.319016 22.9753 0.759641 27.4491 2.44369 31.5147C4.12774 35.5804 6.97958 39.0553 10.6386 41.5002ZM12.6624 7.52874C15.7224 5.48416 19.3199 4.39287 23 4.39287C27.9349 4.39287 32.6677 6.35326 36.1572 9.84277C39.6468 13.3323 41.6071 18.0651 41.6071 23C41.6071 26.6802 40.5159 30.2777 38.4713 33.3376C36.4267 36.3975 33.5207 38.7824 30.1206 40.1908C26.7206 41.5991 22.9794 41.9676 19.3699 41.2496C15.7605 40.5317 12.445 38.7595 9.84277 36.1572C7.24052 33.555 5.46836 30.2395 4.7504 26.6301C4.03244 23.0206 4.40092 19.2794 5.80925 15.8794C7.21758 12.4794 9.60251 9.57331 12.6624 7.52874Z" fill="white" stroke="white" stroke-width="0.5"/>
</svg>
