<svg width="47" height="41" viewBox="0 0 47 41" fill="none" xmlns="http://www.w3.org/2000/svg">
    <path d="M0 8.05357C0 5.91763 0.851086 3.86917 2.36603 2.35884C3.88097 0.848499 5.93567 0 8.07812 0H10.2812C10.8656 0 11.4259 0.231408 11.8391 0.643319C12.2523 1.05523 12.4844 1.6139 12.4844 2.19643C12.4844 2.77896 12.2523 3.33763 11.8391 3.74954C11.4259 4.16145 10.8656 4.39286 10.2812 4.39286H8.07812C6.05125 4.39286 4.40625 6.03286 4.40625 8.05357V10.25C4.40625 10.8325 4.17414 11.3912 3.76097 11.8031C3.3478 12.215 2.78743 12.4464 2.20312 12.4464C1.61882 12.4464 1.05845 12.215 0.64528 11.8031C0.232114 11.3912 1.23133e-08 10.8325 0 10.25V8.05357ZM34.5156 2.19643C34.5156 1.6139 34.7477 1.05523 35.1609 0.643319C35.5741 0.231408 36.1344 0 36.7188 0H38.9219C41.0643 0 43.119 0.848499 44.634 2.35884C46.1489 3.86917 47 5.91763 47 8.05357V10.25C47 10.8325 46.7679 11.3912 46.3547 11.8031C45.9416 12.215 45.3812 12.4464 44.7969 12.4464C44.2126 12.4464 43.6522 12.215 43.239 11.8031C42.8259 11.3912 42.5938 10.8325 42.5938 10.25V8.05357C42.5938 6.03286 40.9487 4.39286 38.9219 4.39286H36.7188C36.1344 4.39286 35.5741 4.16145 35.1609 3.74954C34.7477 3.33763 34.5156 2.77896 34.5156 2.19643ZM2.20312 28.5536C2.78743 28.5536 3.3478 28.785 3.76097 29.1969C4.17414 29.6088 4.40625 30.1675 4.40625 30.75V32.9464C4.40625 34.9671 6.05125 36.6071 8.07812 36.6071H10.2812C10.8656 36.6071 11.4259 36.8386 11.8391 37.2505C12.2523 37.6624 12.4844 38.221 12.4844 38.8036C12.4844 39.3861 12.2523 39.9448 11.8391 40.3567C11.4259 40.7686 10.8656 41 10.2812 41H8.07812C5.93567 41 3.88097 40.1515 2.36603 38.6412C0.851086 37.1308 0 35.0824 0 32.9464V30.75C0 30.1675 0.232114 29.6088 0.64528 29.1969C1.05845 28.785 1.61882 28.5536 2.20312 28.5536ZM44.7969 28.5536C45.3812 28.5536 45.9416 28.785 46.3547 29.1969C46.7679 29.6088 47 30.1675 47 30.75V32.9464C47 35.0824 46.1489 37.1308 44.634 38.6412C43.119 40.1515 41.0643 41 38.9219 41H36.7188C36.1344 41 35.5741 40.7686 35.1609 40.3567C34.7477 39.9448 34.5156 39.3861 34.5156 38.8036C34.5156 38.221 34.7477 37.6624 35.1609 37.2505C35.5741 36.8386 36.1344 36.6071 36.7188 36.6071H38.9219C40.9487 36.6071 42.5938 34.9671 42.5938 32.9464V30.75C42.5938 30.1675 42.8259 29.6088 43.239 29.1969C43.6522 28.785 44.2126 28.5536 44.7969 28.5536ZM10.2812 8.78571C10.8656 8.78571 11.4259 9.01712 11.8391 9.42903C12.2523 9.84094 12.4844 10.3996 12.4844 10.9821V30.0179C12.4844 30.6004 12.2523 31.1591 11.8391 31.571C11.4259 31.9829 10.8656 32.2143 10.2812 32.2143C9.69695 32.2143 9.13657 31.9829 8.7234 31.571C8.31024 31.1591 8.07812 30.6004 8.07812 30.0179V10.9821C8.07812 10.3996 8.31024 9.84094 8.7234 9.42903C9.13657 9.01712 9.69695 8.78571 10.2812 8.78571ZM21.2969 10.9821C21.2969 10.3996 21.0648 9.84094 20.6516 9.42903C20.2384 9.01712 19.6781 8.78571 19.0938 8.78571C18.5094 8.78571 17.9491 9.01712 17.5359 9.42903C17.1227 9.84094 16.8906 10.3996 16.8906 10.9821V30.0179C16.8906 30.6004 17.1227 31.1591 17.5359 31.571C17.9491 31.9829 18.5094 32.2143 19.0938 32.2143C19.6781 32.2143 20.2384 31.9829 20.6516 31.571C21.0648 31.1591 21.2969 30.6004 21.2969 30.0179V10.9821ZM27.9062 8.78571C28.4906 8.78571 29.0509 9.01712 29.4641 9.42903C29.8773 9.84094 30.1094 10.3996 30.1094 10.9821V30.0179C30.1094 30.6004 29.8773 31.1591 29.4641 31.571C29.0509 31.9829 28.4906 32.2143 27.9062 32.2143C27.3219 32.2143 26.7616 31.9829 26.3484 31.571C25.9352 31.1591 25.7031 30.6004 25.7031 30.0179V10.9821C25.7031 10.3996 25.9352 9.84094 26.3484 9.42903C26.7616 9.01712 27.3219 8.78571 27.9062 8.78571ZM38.9219 10.9821C38.9219 10.3996 38.6898 9.84094 38.2766 9.42903C37.8634 9.01712 37.3031 8.78571 36.7188 8.78571C36.1344 8.78571 35.5741 9.01712 35.1609 9.42903C34.7477 9.84094 34.5156 10.3996 34.5156 10.9821V30.0179C34.5156 30.6004 34.7477 31.1591 35.1609 31.571C35.5741 31.9829 36.1344 32.2143 36.7188 32.2143C37.3031 32.2143 37.8634 31.9829 38.2766 31.571C38.6898 31.1591 38.9219 30.6004 38.9219 30.0179V10.9821Z" fill="#1A441D"/>
</svg>
