<svg width="28" height="27" viewBox="0 0 28 27" fill="none" xmlns="http://www.w3.org/2000/svg">
    <path d="M25.0075 21.2139C24.3195 20.5784 23.6498 19.9247 22.9993 19.2535C22.4529 18.7181 22.1238 18.3286 22.1238 18.3286L18.0105 16.4348C19.6573 14.634 20.5661 12.3158 20.5666 9.91501C20.5666 4.44901 15.9538 0 10.2833 0C4.6128 0 0 4.44901 0 9.91501C0 15.381 4.6128 19.83 10.2833 19.83C12.8732 19.83 15.234 18.8952 17.0453 17.3669L19.0094 21.3329C19.0094 21.3329 19.4134 21.6501 19.9687 22.1771C20.5372 22.6912 21.285 23.3867 22.0019 24.1133L23.9968 26.085L24.8841 27L28 23.9958L27.051 23.1402C26.4942 22.6133 25.7509 21.9136 25.0075 21.2139ZM10.2833 16.9972C6.23315 16.9972 2.93809 13.8201 2.93809 9.91501C2.93809 6.00991 6.23315 2.83286 10.2833 2.83286C14.3335 2.83286 17.6285 6.00991 17.6285 9.91501C17.6285 13.8201 14.3335 16.9972 10.2833 16.9972Z" fill="white"/>
</svg>
